<svg width="48" height="48" viewBox="0 0 48 48" fill="none" xmlns="http://www.w3.org/2000/svg">
<mask id="mask0_626_2253" style="mask-type:alpha" maskUnits="userSpaceOnUse" x="0" y="0" width="48" height="48">
<rect width="48" height="48" fill="#D9D9D9"/>
</mask>
<g mask="url(#mask0_626_2253)">
<path d="M11.25 44C9.79167 44 8.55217 43.4895 7.5315 42.4685C6.5105 41.4478 6 40.2083 6 38.75V35C6 34.175 6.29383 33.4687 6.8815 32.881C7.46883 32.2937 8.175 32 9 32H12V7C12 6.175 12.2938 5.46867 12.8815 4.881C13.4688 4.29367 14.175 4 15 4H39C39.825 4 40.5313 4.29367 41.119 4.881C41.7063 5.46867 42 6.175 42 7V38.75C42 40.2083 41.4897 41.4478 40.469 42.4685C39.448 43.4895 38.2083 44 36.75 44H11.25ZM36.7455 41C37.3818 41 37.9167 40.7843 38.35 40.353C38.7833 39.9217 39 39.3873 39 38.75V7H15V32H31.5C32.325 32 33.0313 32.2937 33.619 32.881C34.2063 33.4687 34.5 34.175 34.5 35V38.75C34.5 39.3873 34.7152 39.9217 35.1455 40.353C35.5758 40.7843 36.1092 41 36.7455 41ZM19.5 16C19.075 16 18.7188 15.8553 18.4315 15.566C18.1438 15.277 18 14.9187 18 14.491C18 14.0637 18.1438 13.7083 18.4315 13.425C18.7188 13.1417 19.075 13 19.5 13H34.5C34.925 13 35.2813 13.1447 35.569 13.434C35.8563 13.723 36 14.0813 36 14.509C36 14.9363 35.8563 15.2917 35.569 15.575C35.2813 15.8583 34.925 16 34.5 16H19.5ZM19.5 22C19.075 22 18.7188 21.8553 18.4315 21.566C18.1438 21.277 18 20.9187 18 20.491C18 20.0637 18.1438 19.7083 18.4315 19.425C18.7188 19.1417 19.075 19 19.5 19H34.5C34.925 19 35.2813 19.1447 35.569 19.434C35.8563 19.723 36 20.0813 36 20.509C36 20.9363 35.8563 21.2917 35.569 21.575C35.2813 21.8583 34.925 22 34.5 22H19.5ZM11.2 41H31.5V35H9V38.75C9 39.3873 9.21667 39.9217 9.65 40.353C10.0833 40.7843 10.6 41 11.2 41ZM11.2 41H9H31.5H11.2Z" fill="#1C1B1F"/>
</g>
</svg>
