<svg width="48" height="48" viewBox="0 0 48 48" fill="none" xmlns="http://www.w3.org/2000/svg">
<mask id="mask0_620_1200" style="mask-type:alpha" maskUnits="userSpaceOnUse" x="0" y="0" width="48" height="48">
<rect width="48" height="48" fill="#D9D9D9"/>
</mask>
<g mask="url(#mask0_620_1200)">
<path d="M13.0501 40C12.2251 40 11.5189 39.7062 10.9316 39.1185C10.3439 38.5312 10.0501 37.825 10.0501 37V20.4L4.95008 24.25C4.61541 24.5167 4.25674 24.625 3.87408 24.575C3.49141 24.525 3.16674 24.3333 2.90008 24C2.63341 23.6667 2.53341 23.3 2.60008 22.9C2.66674 22.5 2.86674 22.1667 3.20008 21.9L22.2001 7.4C22.4667 7.2 22.7536 7.04167 23.0606 6.925C23.3676 6.80833 23.6807 6.75 24.0001 6.75C24.3194 6.75 24.6326 6.80833 24.9396 6.925C25.2466 7.04167 25.5334 7.2 25.8001 7.4L32.9001 12.8V10.5C32.9001 9.80567 33.1437 9.21533 33.6311 8.729C34.1184 8.243 34.7101 8 35.4061 8C36.1021 8 36.6917 8.243 37.1751 8.729C37.6584 9.21533 37.9001 9.80567 37.9001 10.5V16.6L44.8001 21.9C45.1334 22.1667 45.3251 22.5 45.3751 22.9C45.4251 23.3 45.3167 23.6667 45.0501 24C44.7834 24.3333 44.4587 24.525 44.0761 24.575C43.6934 24.625 43.3347 24.5167 43.0001 24.25L37.9001 20.35V37C37.9001 37.825 37.6064 38.5312 37.0191 39.1185C36.4314 39.7062 35.7251 40 34.9001 40H29.5001C28.6751 40 27.9689 39.7062 27.3816 39.1185C26.7939 38.5312 26.5001 37.825 26.5001 37V28H21.5001V37C21.5001 37.825 21.2064 38.5312 20.6191 39.1185C20.0314 39.7062 19.3251 40 18.5001 40H13.0501ZM13.0501 37H18.5001V28C18.5001 27.175 18.7939 26.4687 19.3816 25.881C19.9689 25.2937 20.6751 25 21.5001 25H26.5001C27.3251 25 28.0314 25.2937 28.6191 25.881C29.2064 26.4687 29.5001 27.175 29.5001 28V37H34.9001V18.1L24.0001 9.75L13.0501 18.1V37ZM19.7501 19.5H28.2501C28.2501 18.4 27.8251 17.4917 26.9751 16.775C26.1251 16.0583 25.1334 15.7 24.0001 15.7C22.8667 15.7 21.8751 16.0557 21.0251 16.767C20.1751 17.4783 19.7501 18.3893 19.7501 19.5Z" fill="#1C1B1F"/>
</g>
</svg>
