<svg width="16" height="26" viewBox="0 0 16 26" fill="none" xmlns="http://www.w3.org/2000/svg">
<path d="M7.99951 25.5C5.79118 25.5 3.9891 25.1771 2.59326 24.5312C1.19743 23.8854 0.499512 23.0625 0.499512 22.0625C0.499512 21.5 0.75472 20.9687 1.26514 20.4687C1.77555 19.9687 2.47868 19.5625 3.37451 19.25L3.93701 21.0625C3.60368 21.1667 3.29639 21.3125 3.01514 21.5C2.73389 21.6875 2.50993 21.875 2.34326 22.0625C2.69743 22.4792 3.4318 22.8437 4.54639 23.1562C5.66097 23.4687 6.81201 23.625 7.99951 23.625C9.18701 23.625 10.3433 23.4687 11.4683 23.1562C12.5933 22.8437 13.3328 22.4792 13.687 22.0625C13.5203 21.8958 13.3016 21.7187 13.0308 21.5312C12.7599 21.3437 12.4474 21.1875 12.0933 21.0625L12.6245 19.25C13.5203 19.5625 14.2235 19.9687 14.7339 20.4687C15.2443 20.9687 15.4995 21.5 15.4995 22.0625C15.4995 23.0625 14.8016 23.8854 13.4058 24.5312C12.0099 25.1771 10.2078 25.5 7.99951 25.5ZM7.99951 22.1875C7.74951 22.1875 7.53076 22.1146 7.34326 21.9688C7.15576 21.8229 7.02035 21.6354 6.93701 21.4062C6.43701 19.8854 5.81201 18.625 5.06201 17.625C4.31201 16.625 3.58284 15.6667 2.87451 14.75C2.16618 13.8333 1.56201 12.8802 1.06201 11.8906C0.562012 10.901 0.312012 9.66667 0.312012 8.1875C0.312012 6.04167 1.0568 4.22396 2.54639 2.73437C4.03597 1.24479 5.85368 0.5 7.99951 0.5C10.1453 0.5 11.9631 1.24479 13.4526 2.73437C14.9422 4.22396 15.687 6.04167 15.687 8.1875C15.687 9.66667 15.437 10.901 14.937 11.8906C14.437 12.8802 13.8328 13.8333 13.1245 14.75C12.4162 15.6667 11.687 16.625 10.937 17.625C10.187 18.625 9.56201 19.8854 9.06201 21.4062C8.97868 21.6354 8.84326 21.8229 8.65576 21.9688C8.46826 22.1146 8.24951 22.1875 7.99951 22.1875ZM7.99951 10.0625C8.52034 10.0625 8.96305 9.88021 9.32764 9.51562C9.69222 9.15104 9.87451 8.70833 9.87451 8.1875C9.87451 7.66667 9.69222 7.22396 9.32764 6.85937C8.96305 6.49479 8.52034 6.3125 7.99951 6.3125C7.47868 6.3125 7.03597 6.49479 6.67139 6.85937C6.3068 7.22396 6.12451 7.66667 6.12451 8.1875C6.12451 8.70833 6.3068 9.15104 6.67139 9.51562C7.03597 9.88021 7.47868 10.0625 7.99951 10.0625Z" fill="#FF6868"/>
</svg>
